<svg xmlns="http://www.w3.org/2000/svg" id="mapnik_style" viewBox="0 0 24 24">
    <g>
        <g>
            <path style="display:none;fill:#AEC8E0;" d="M9,19c0.1,0,1-0.6,1-0.6L8.8,14c-1,1.2-1.5,1.8-1.9,3L9,19z"/>
            <path style="fill:#AEC8E0;" d="M19.4,7.3c0.1,0.1,0.2,0.1,0.3,0.2C20.5,6.4,21,5.6,21,5.6s0.3-0.4,0-0.7c-0.4-0.4-0.9-0.1-0.9-0.1
			s-1,0.8-2.4,1.7h0.1C18.5,6.8,18.9,7,19.4,7.3z"/>
        </g>
        <path style="fill:#00B066;"
              d="M6.1,17.3C0.8,17.8,3,22.5,0,24c4,0,8.1-0.8,8.3-4.5c0.2-0.2-1.9-2.2-1.7-2.2L6.1,17.3L6.1,17.3z"/>
    </g>
    <path style="fill:#7CCAD1;" d="M24,15C24,15,24,15,24,15c0-2.4-0.9-4.7-2.6-6.4S17.4,6,15,6s-4.7,0.9-6.4,2.6S6,12.6,6,15c0,0,0,0,0,0l0,0
	c0,0,0,0,0,0c0,2.4,0.9,4.6,2.6,6.3c1.7,1.7,3.9,2.6,6.4,2.6c0.2,0,0.5,0,0.7,0c0,0,0,0,0,0c2.1-0.2,4.1-1.1,5.6-2.6
	C23,19.7,23.9,17.4,24,15C24,15,24,15,24,15L24,15z M22.2,18.2h-3c0.3-1,0.4-1.9,0.5-2.7h3.2C22.8,16.5,22.6,17.4,22.2,18.2z
	 M7.7,11.8h3c-0.3,1-0.4,1.9-0.5,2.7H7.1C7.1,13.6,7.3,12.6,7.7,11.8z M15.5,10.7V7.2c0.5,0.5,1.5,1.8,2.2,3.6H15.5z M18.1,11.8
	c0.3,0.8,0.5,1.7,0.5,2.7h-3.1v-2.7H18.1z M14.4,10.7h-2.2c0.2-0.6,0.5-1.1,0.7-1.5c0.6-1,1.1-1.7,1.5-2.1V10.7z M14.4,11.8v2.7
	h-3.1c0-1,0.3-1.9,0.5-2.7H14.4z M7.1,15.5h3.2c0,0.9,0.2,1.8,0.5,2.7h-3C7.3,17.4,7.1,16.5,7.1,15.5z M11.3,15.5h3.1v2.7h-2.6
	C11.6,17.4,11.4,16.5,11.3,15.5z M14.4,19.3v3.5C14,22.3,13,21,12.3,19.3H14.4L14.4,19.3z M15.5,19.3h2.2c-0.2,0.6-0.5,1.1-0.7,1.5
	c-0.6,1-1.1,1.7-1.5,2.1V19.3z M15.5,18.2v-2.7h3.1c-0.1,0.9-0.3,1.8-0.5,2.7H15.5z M19.7,14.5c0-0.9-0.2-1.8-0.5-2.7h3
	c0.4,0.8,0.6,1.8,0.7,2.7H19.7z M21.7,10.7h-2.8C18.6,10.2,18.3,9.6,18,9c-0.4-0.7-0.7-1.2-1.1-1.7c1.4,0.3,2.6,1.1,3.6,2.1
	C21,9.8,21.4,10.3,21.7,10.7z M9.4,9.4c1-1,2.3-1.7,3.7-2.1c-0.3,0.4-0.6,0.9-0.9,1.4c-0.4,0.7-0.7,1.4-1,2H8.3
	C8.6,10.3,9,9.8,9.4,9.4z M8.3,19.3h2.8c0.3,0.8,0.7,1.5,1,2c0.3,0.6,0.6,1,0.9,1.4c-1.4-0.3-2.6-1.1-3.7-2.1
	C9,20.2,8.6,19.7,8.3,19.3z M20.6,20.6c-1,1-2.3,1.7-3.7,2.1c0.3-0.4,0.6-0.9,0.9-1.4c0.4-0.7,0.7-1.4,1-2h2.8
	C21.4,19.7,21,20.2,20.6,20.6z"/>
</svg>